<svg width="191" height="111" viewBox="0 0 191 111" fill="none" xmlns="http://www.w3.org/2000/svg">
<path d="M170.049 104.252L169.191 109.415H168.602L169.461 104.252H170.049ZM167.13 107.491C166.947 107.474 166.773 107.466 166.612 107.466C165.508 107.466 164.957 107.777 164.957 108.399C164.957 108.59 165.015 108.743 165.135 108.864C165.256 108.98 165.421 109.038 165.633 109.038C165.969 109.038 166.284 108.893 166.574 108.602C166.869 108.312 167.055 107.939 167.13 107.491ZM167.507 109.419H166.902C166.898 109.34 166.898 109.278 166.898 109.229C166.898 109.029 166.918 108.847 166.964 108.673C166.578 109.245 166.101 109.531 165.529 109.531C165.168 109.531 164.878 109.423 164.65 109.204C164.422 108.984 164.31 108.71 164.31 108.378C164.31 108.009 164.476 107.69 164.799 107.429C165.127 107.167 165.732 107.035 166.624 107.035C166.707 107.035 166.898 107.043 167.2 107.06C167.234 106.894 167.25 106.761 167.25 106.662C167.25 106.18 166.956 105.936 166.367 105.936C165.849 105.936 165.479 106.151 165.26 106.579L164.704 106.338C165.007 105.757 165.546 105.471 166.325 105.471C166.757 105.471 167.118 105.567 167.412 105.757C167.702 105.948 167.847 106.218 167.847 106.562C167.847 106.703 167.752 107.367 167.565 108.548C167.52 108.868 167.495 109.104 167.495 109.258C167.495 109.278 167.499 109.332 167.507 109.419ZM163.273 109.419H162.709L163.078 107.213C163.12 106.96 163.141 106.778 163.141 106.666C163.141 106.467 163.078 106.301 162.954 106.16C162.829 106.019 162.651 105.952 162.419 105.952C162.133 105.952 161.863 106.089 161.602 106.367C161.341 106.645 161.142 107.205 160.992 108.047L160.756 109.419H160.209L160.851 105.587H161.37L161.237 106.421C161.565 105.791 162.012 105.48 162.576 105.48C162.912 105.48 163.182 105.583 163.389 105.786C163.597 105.99 163.704 106.259 163.704 106.591C163.704 106.74 163.684 106.948 163.638 107.205L163.273 109.419ZM157.766 109.054C158.172 109.054 158.483 108.855 158.703 108.453C158.923 108.055 159.031 107.595 159.031 107.076C159.031 106.682 158.94 106.4 158.753 106.226C158.57 106.052 158.347 105.965 158.094 105.965C157.691 105.965 157.38 106.164 157.16 106.562C156.941 106.96 156.833 107.408 156.833 107.901C156.833 108.279 156.92 108.569 157.086 108.764C157.256 108.955 157.484 109.054 157.766 109.054ZM157.741 109.527C157.264 109.527 156.891 109.361 156.613 109.029C156.339 108.698 156.198 108.275 156.198 107.76C156.198 107.176 156.381 106.653 156.737 106.189C157.098 105.724 157.563 105.492 158.127 105.492C158.591 105.492 158.964 105.65 159.242 105.969C159.52 106.288 159.657 106.72 159.657 107.271C159.657 107.839 159.479 108.358 159.122 108.826C158.77 109.291 158.309 109.527 157.741 109.527ZM155.008 109.419H154.415L155.058 105.587H155.651L155.008 109.419ZM155.846 104.949H155.079L155.195 104.252H155.962L155.846 104.949ZM153.801 106.417L153.312 106.624C153.146 106.197 152.81 105.981 152.313 105.981C152.084 105.981 151.902 106.039 151.761 106.156C151.624 106.272 151.554 106.409 151.554 106.57C151.554 106.732 151.608 106.852 151.711 106.927C151.819 107.002 152.026 107.076 152.337 107.151L152.574 107.209C152.839 107.271 153.047 107.337 153.192 107.408C153.337 107.478 153.461 107.595 153.561 107.752C153.66 107.91 153.71 108.092 153.71 108.291C153.71 108.631 153.577 108.922 153.308 109.162C153.042 109.403 152.677 109.523 152.213 109.523C151.881 109.523 151.57 109.457 151.28 109.328C150.99 109.199 150.741 108.913 150.529 108.478L151.081 108.291C151.263 108.797 151.645 109.05 152.234 109.05C152.512 109.05 152.731 108.988 152.885 108.859C153.038 108.735 153.117 108.577 153.117 108.387C153.117 108.237 153.071 108.121 152.98 108.034C152.889 107.947 152.686 107.868 152.371 107.794L152.172 107.744C151.877 107.673 151.653 107.599 151.496 107.524C151.338 107.449 151.209 107.337 151.102 107.184C150.994 107.031 150.944 106.861 150.944 106.666C150.944 106.346 151.068 106.077 151.313 105.849C151.558 105.625 151.894 105.509 152.317 105.509C153.08 105.509 153.577 105.811 153.801 106.417ZM150.227 106.417L149.737 106.624C149.571 106.197 149.235 105.981 148.738 105.981C148.51 105.981 148.327 106.039 148.186 106.156C148.049 106.272 147.979 106.409 147.979 106.57C147.979 106.732 148.033 106.852 148.136 106.927C148.244 107.002 148.452 107.076 148.763 107.151L148.999 107.209C149.264 107.271 149.472 107.337 149.617 107.408C149.762 107.478 149.887 107.595 149.986 107.752C150.086 107.91 150.135 108.092 150.135 108.291C150.135 108.631 150.003 108.922 149.733 109.162C149.468 109.403 149.103 109.523 148.638 109.523C148.307 109.523 147.995 109.457 147.705 109.328C147.415 109.199 147.166 108.913 146.955 108.478L147.506 108.291C147.689 108.797 148.07 109.05 148.659 109.05C148.937 109.05 149.157 108.988 149.31 108.859C149.464 108.735 149.542 108.577 149.542 108.387C149.542 108.237 149.497 108.121 149.405 108.034C149.314 107.947 149.111 107.868 148.796 107.794L148.597 107.744C148.302 107.673 148.078 107.599 147.921 107.524C147.763 107.449 147.635 107.337 147.527 107.184C147.419 107.031 147.369 106.861 147.369 106.666C147.369 106.346 147.494 106.077 147.738 105.849C147.983 105.625 148.319 105.509 148.742 105.509C149.509 105.509 150.003 105.811 150.227 106.417ZM146.08 109.419H145.487L146.129 105.587H146.722L146.08 109.419ZM146.926 104.936H146.158L146.274 104.256H147.042L146.926 104.936ZM144.226 109.419H143.629L144.197 106.044H143.483L143.562 105.587H144.276C144.392 105.028 144.553 104.646 144.765 104.435C144.976 104.227 145.279 104.124 145.686 104.124C145.831 104.124 145.963 104.132 146.084 104.153L145.968 104.609C145.876 104.6 145.793 104.592 145.723 104.592C145.52 104.592 145.346 104.646 145.205 104.754C145.064 104.862 144.956 105.135 144.881 105.583H145.818L145.739 106.039H144.806L144.226 109.419ZM141.057 109.054C141.464 109.054 141.775 108.855 141.995 108.453C142.214 108.055 142.322 107.595 142.322 107.076C142.322 106.682 142.231 106.4 142.044 106.226C141.862 106.052 141.638 105.965 141.385 105.965C140.983 105.965 140.672 106.164 140.452 106.562C140.232 106.96 140.124 107.408 140.124 107.901C140.124 108.279 140.211 108.569 140.377 108.764C140.547 108.955 140.775 109.054 141.057 109.054ZM141.028 109.527C140.552 109.527 140.178 109.361 139.9 109.029C139.627 108.698 139.486 108.275 139.486 107.76C139.486 107.176 139.668 106.653 140.025 106.189C140.386 105.724 140.85 105.492 141.414 105.492C141.879 105.492 142.252 105.65 142.53 105.969C142.808 106.288 142.944 106.72 142.944 107.271C142.944 107.839 142.766 108.358 142.409 108.826C142.061 109.291 141.601 109.527 141.028 109.527ZM137.495 109.419H136.902L137.545 105.587H138.134L137.964 106.57C138.167 106.185 138.378 105.907 138.598 105.737C138.822 105.567 139.083 105.48 139.382 105.48C139.419 105.48 139.461 105.48 139.511 105.48L139.411 106.085H139.266C139.03 106.085 138.839 106.131 138.694 106.218C138.544 106.305 138.412 106.429 138.291 106.591C138.171 106.753 138.059 106.952 137.955 107.192C137.852 107.433 137.744 107.889 137.636 108.565L137.495 109.419ZM134.48 109.054C134.899 109.054 135.21 108.843 135.413 108.424C135.617 108.005 135.716 107.549 135.716 107.055C135.716 106.711 135.637 106.45 135.476 106.272C135.314 106.093 135.123 106.006 134.895 106.006C134.571 106.006 134.273 106.209 134.003 106.612C133.734 107.014 133.597 107.47 133.597 107.98C133.597 108.304 133.676 108.565 133.837 108.764C133.999 108.955 134.211 109.054 134.48 109.054ZM133.128 110.709H132.539L133.39 105.6H133.941L133.817 106.384C134.173 105.807 134.601 105.517 135.106 105.517C135.459 105.517 135.758 105.662 135.998 105.948C136.239 106.234 136.359 106.637 136.359 107.151C136.359 107.752 136.193 108.3 135.853 108.789C135.517 109.278 135.09 109.523 134.576 109.523C134.086 109.523 133.709 109.299 133.435 108.851L133.128 110.709ZM128.372 109.054C128.778 109.054 129.089 108.855 129.309 108.453C129.529 108.055 129.637 107.595 129.637 107.076C129.637 106.682 129.545 106.4 129.359 106.226C129.176 106.052 128.952 105.965 128.699 105.965C128.297 105.965 127.986 106.164 127.766 106.562C127.546 106.96 127.439 107.408 127.439 107.901C127.439 108.279 127.526 108.569 127.692 108.764C127.866 108.955 128.09 109.054 128.372 109.054ZM128.347 109.527C127.87 109.527 127.497 109.361 127.219 109.029C126.945 108.698 126.804 108.275 126.804 107.76C126.804 107.176 126.987 106.653 127.343 106.189C127.704 105.724 128.168 105.492 128.732 105.492C129.197 105.492 129.57 105.65 129.848 105.969C130.126 106.288 130.263 106.72 130.263 107.271C130.263 107.839 130.084 108.358 129.728 108.826C129.379 109.291 128.915 109.527 128.347 109.527ZM125.929 104.198L126.219 104.472C125.975 104.725 125.726 104.849 125.46 104.849C125.34 104.849 125.178 104.808 124.975 104.721C124.755 104.625 124.59 104.576 124.473 104.576C124.27 104.576 124.1 104.658 123.967 104.824L123.652 104.605C123.872 104.281 124.15 104.119 124.49 104.119C124.606 104.119 124.768 104.165 124.971 104.248C125.195 104.343 125.361 104.389 125.469 104.389C125.639 104.393 125.792 104.331 125.929 104.198ZM125.324 107.491C125.141 107.474 124.967 107.466 124.805 107.466C123.702 107.466 123.151 107.777 123.151 108.399C123.151 108.59 123.209 108.743 123.329 108.864C123.449 108.98 123.615 109.038 123.826 109.038C124.162 109.038 124.478 108.893 124.768 108.602C125.062 108.312 125.249 107.939 125.324 107.491ZM125.697 109.419H125.091C125.087 109.34 125.087 109.278 125.087 109.229C125.087 109.029 125.108 108.847 125.154 108.673C124.768 109.245 124.291 109.531 123.719 109.531C123.358 109.531 123.068 109.423 122.839 109.204C122.611 108.984 122.499 108.71 122.499 108.378C122.499 108.009 122.665 107.69 122.989 107.429C123.316 107.167 123.922 107.035 124.813 107.035C124.896 107.035 125.087 107.043 125.39 107.06C125.423 106.894 125.44 106.761 125.44 106.662C125.44 106.18 125.145 105.936 124.556 105.936C124.038 105.936 123.669 106.151 123.449 106.579L122.893 106.338C123.196 105.757 123.735 105.471 124.515 105.471C124.946 105.471 125.307 105.567 125.601 105.757C125.892 105.948 126.037 106.218 126.037 106.562C126.037 106.703 125.941 107.367 125.755 108.548C125.709 108.868 125.684 109.104 125.684 109.258C125.689 109.278 125.693 109.332 125.697 109.419ZM122.039 106.417L121.55 106.624C121.384 106.197 121.048 105.981 120.55 105.981C120.322 105.981 120.14 106.039 119.999 106.156C119.862 106.272 119.791 106.409 119.791 106.57C119.791 106.732 119.845 106.852 119.949 106.927C120.057 107.002 120.264 107.076 120.575 107.151L120.812 107.209C121.077 107.271 121.284 107.337 121.429 107.408C121.575 107.478 121.699 107.595 121.799 107.752C121.898 107.91 121.948 108.092 121.948 108.291C121.948 108.631 121.815 108.922 121.546 109.162C121.28 109.403 120.915 109.523 120.451 109.523C120.119 109.523 119.808 109.457 119.518 109.328C119.227 109.199 118.979 108.913 118.767 108.478L119.319 108.291C119.501 108.797 119.883 109.05 120.472 109.05C120.749 109.05 120.969 108.988 121.123 108.859C121.276 108.735 121.355 108.577 121.355 108.387C121.355 108.237 121.309 108.121 121.218 108.034C121.127 107.947 120.924 107.868 120.608 107.794L120.409 107.744C120.115 107.673 119.891 107.599 119.733 107.524C119.576 107.449 119.447 107.337 119.339 107.184C119.232 107.031 119.182 106.861 119.182 106.666C119.182 106.346 119.306 106.077 119.551 105.849C119.796 105.625 120.131 105.509 120.554 105.509C121.322 105.509 121.819 105.811 122.039 106.417ZM116.951 109.419H116.358L117 105.587H117.589L117.419 106.57C117.623 106.185 117.834 105.907 118.054 105.737C118.278 105.567 118.539 105.48 118.838 105.48C118.875 105.48 118.916 105.48 118.966 105.48L118.867 106.085H118.721C118.485 106.085 118.294 106.131 118.149 106.218C118 106.305 117.867 106.429 117.747 106.591C117.627 106.753 117.515 106.952 117.411 107.192C117.307 107.433 117.2 107.889 117.092 108.565L116.951 109.419ZM113.044 107.118H115.213C115.217 107.039 115.221 106.977 115.221 106.935C115.221 106.624 115.134 106.38 114.96 106.193C114.782 106.006 114.554 105.915 114.272 105.915C113.952 105.915 113.683 106.035 113.459 106.272C113.235 106.512 113.098 106.794 113.044 107.118ZM115.607 108.524C115.213 109.191 114.662 109.527 113.952 109.527C113.471 109.527 113.077 109.37 112.775 109.054C112.472 108.739 112.318 108.312 112.318 107.777C112.318 107.118 112.509 106.566 112.887 106.127C113.264 105.687 113.733 105.463 114.292 105.463C114.57 105.463 114.823 105.521 115.064 105.641C115.304 105.757 115.487 105.944 115.619 106.197C115.752 106.45 115.819 106.757 115.819 107.118C115.819 107.246 115.81 107.391 115.79 107.557H112.97C112.953 107.678 112.945 107.777 112.945 107.856C112.945 108.204 113.036 108.49 113.218 108.706C113.401 108.926 113.65 109.034 113.965 109.034C114.18 109.034 114.375 108.984 114.55 108.888C114.724 108.793 114.91 108.594 115.114 108.291L115.607 108.524ZM110.44 109.419H109.884L109.109 105.587H109.743L110.328 108.586L111.833 105.587H112.364L110.44 109.419ZM105.049 109.419H104.46L105.103 105.587H105.691L105.521 106.57C105.725 106.185 105.936 105.907 106.156 105.737C106.38 105.567 106.641 105.48 106.94 105.48C106.977 105.48 107.019 105.48 107.068 105.48L106.969 106.085H106.824C106.587 106.085 106.396 106.131 106.251 106.218C106.102 106.305 105.969 106.429 105.849 106.591C105.729 106.753 105.617 106.952 105.513 107.192C105.409 107.433 105.302 107.889 105.194 108.565L105.049 109.419ZM102.009 109.054C102.415 109.054 102.726 108.855 102.946 108.453C103.166 108.055 103.274 107.595 103.274 107.076C103.274 106.682 103.182 106.4 102.996 106.226C102.813 106.052 102.589 105.965 102.336 105.965C101.934 105.965 101.623 106.164 101.403 106.562C101.184 106.96 101.076 107.408 101.076 107.901C101.076 108.279 101.163 108.569 101.329 108.764C101.503 108.955 101.727 109.054 102.009 109.054ZM101.984 109.527C101.507 109.527 101.134 109.361 100.856 109.029C100.582 108.698 100.441 108.275 100.441 107.76C100.441 107.176 100.624 106.653 100.98 106.189C101.341 105.724 101.806 105.492 102.37 105.492C102.834 105.492 103.207 105.65 103.485 105.969C103.763 106.288 103.9 106.72 103.9 107.271C103.9 107.839 103.722 108.358 103.365 108.826C103.017 109.291 102.552 109.527 101.984 109.527ZM97.6628 104.252L97.3227 106.297C97.6669 105.749 98.0941 105.475 98.6 105.475C98.911 105.475 99.1682 105.571 99.3797 105.757C99.587 105.944 99.6948 106.205 99.6948 106.533C99.6948 106.657 99.6741 106.832 99.6368 107.06L99.2428 109.415H98.6622L99.0562 107.06C99.0852 106.881 99.1018 106.728 99.1018 106.591C99.1018 106.388 99.0396 106.226 98.9193 106.114C98.7991 106.002 98.6456 105.948 98.4631 105.948C98.1729 105.948 97.895 106.106 97.6254 106.425C97.36 106.74 97.1693 107.213 97.0656 107.848L96.8043 109.419H96.2113L97.0697 104.256H97.6628V104.252ZM95.8837 104.252L95.0253 109.415H94.4364L95.2948 104.252H95.8837ZM91.1229 107.118H93.2918C93.2959 107.039 93.3001 106.977 93.3001 106.935C93.3001 106.624 93.213 106.38 93.0388 106.193C92.8605 106.006 92.6324 105.915 92.3504 105.915C92.0311 105.915 91.7615 106.035 91.5376 106.272C91.3136 106.512 91.1768 106.794 91.1229 107.118ZM93.6857 108.524C93.2918 109.191 92.7402 109.527 92.0311 109.527C91.55 109.527 91.1561 109.37 90.8533 109.054C90.5506 108.739 90.3971 108.312 90.3971 107.777C90.3971 107.118 90.5879 106.566 90.9653 106.127C91.3427 105.687 91.8113 105.463 92.3711 105.463C92.649 105.463 92.902 105.521 93.1425 105.641C93.383 105.757 93.5655 105.944 93.6982 106.197C93.8309 106.45 93.8973 106.757 93.8973 107.118C93.8973 107.246 93.889 107.391 93.8682 107.557H91.0482C91.0316 107.678 91.0233 107.777 91.0233 107.856C91.0233 108.204 91.1146 108.49 91.297 108.706C91.4795 108.926 91.7283 109.034 92.0435 109.034C92.2592 109.034 92.4541 108.984 92.6283 108.888C92.8024 108.793 92.989 108.594 93.1922 108.291L93.6857 108.524ZM89.2277 109.419H88.6388L89.012 107.205C89.0535 106.956 89.0742 106.769 89.0742 106.649C89.0742 106.413 89.0079 106.243 88.8835 106.135C88.7549 106.027 88.6056 105.973 88.4397 105.973C88.1909 105.973 87.9545 106.114 87.7223 106.392C87.4942 106.674 87.3283 107.109 87.2288 107.698L86.9426 109.415H86.3496L86.7146 107.217C86.7643 106.927 86.7892 106.728 86.7892 106.624C86.7892 106.409 86.7312 106.247 86.615 106.131C86.4989 106.019 86.3538 105.961 86.1796 105.961C86.0469 105.961 85.9142 106.002 85.7773 106.089C85.6405 106.172 85.5078 106.313 85.3834 106.512C85.2589 106.711 85.1719 106.894 85.1262 107.068C85.0806 107.242 85.0184 107.566 84.9355 108.038L84.6867 109.415H84.0853L84.7281 105.583H85.2921L85.1926 106.214C85.5409 105.733 85.9266 105.492 86.3496 105.492C86.8639 105.492 87.1956 105.766 87.3491 106.317C87.7057 105.762 88.1246 105.484 88.6015 105.484C88.9166 105.484 89.1738 105.579 89.377 105.766C89.5802 105.952 89.6797 106.209 89.6797 106.533C89.6797 106.67 89.6631 106.844 89.6258 107.06L89.2277 109.419ZM80.6848 107.491C80.5023 107.474 80.3281 107.466 80.1664 107.466C79.0633 107.466 78.5117 107.777 78.5117 108.399C78.5117 108.59 78.5698 108.743 78.69 108.864C78.8103 108.98 78.9762 109.038 79.1877 109.038C79.5277 109.038 79.8388 108.893 80.1291 108.602C80.4235 108.312 80.606 107.939 80.6848 107.491ZM81.058 109.419H80.4525C80.4484 109.34 80.4484 109.278 80.4484 109.229C80.4484 109.029 80.4691 108.847 80.5147 108.673C80.1291 109.245 79.6521 109.531 79.0799 109.531C78.7191 109.531 78.4288 109.423 78.2007 109.204C77.9726 108.984 77.8606 108.71 77.8606 108.378C77.8606 108.009 78.0265 107.69 78.35 107.429C78.6776 107.167 79.2831 107.035 80.1747 107.035C80.2576 107.035 80.4484 107.043 80.7511 107.06C80.7843 106.894 80.8009 106.761 80.8009 106.662C80.8009 106.18 80.5064 105.936 79.9176 105.936C79.3992 105.936 79.0301 106.151 78.8103 106.579L78.2546 106.338C78.5573 105.757 79.0964 105.471 79.8761 105.471C80.3074 105.471 80.6682 105.567 80.9626 105.757C81.2529 105.948 81.398 106.218 81.398 106.562C81.398 106.703 81.3027 107.367 81.1161 108.548C81.0704 108.868 81.0455 109.104 81.0455 109.258C81.0455 109.278 81.0497 109.332 81.058 109.419ZM77.4791 105.587L76.8446 109.419H76.3262L76.4672 108.519C76.1272 109.191 75.6668 109.527 75.0779 109.527C74.8499 109.527 74.6549 109.473 74.4891 109.365C74.3232 109.258 74.2071 109.129 74.1324 108.984C74.0578 108.839 74.0246 108.652 74.0246 108.428C74.0246 108.283 74.0536 108.051 74.1075 107.727L74.4725 105.583H75.0614L74.6757 107.91C74.6301 108.175 74.6093 108.337 74.6093 108.399C74.6093 108.598 74.6674 108.756 74.7835 108.868C74.8996 108.98 75.0531 109.038 75.2438 109.038C75.5632 109.038 75.8576 108.864 76.1272 108.519C76.3967 108.171 76.5875 107.686 76.6911 107.055L76.9317 105.583H77.4791V105.587ZM73.1993 106.417L72.71 106.624C72.5441 106.197 72.2082 105.981 71.7105 105.981C71.4825 105.981 71.3 106.039 71.159 106.156C71.0221 106.272 70.9516 106.409 70.9516 106.57C70.9516 106.732 71.0055 106.852 71.1092 106.927C71.217 107.002 71.4244 107.076 71.7354 107.151L71.9718 107.209C72.2372 107.271 72.4446 107.337 72.5897 107.408C72.7349 107.478 72.8593 107.595 72.9588 107.752C73.0583 107.91 73.1081 108.092 73.1081 108.291C73.1081 108.631 72.9754 108.922 72.7058 109.162C72.4404 109.403 72.0755 109.523 71.611 109.523C71.2793 109.523 70.9682 109.457 70.6779 109.328C70.3876 109.199 70.1388 108.913 69.9273 108.478L70.4789 108.291C70.6613 108.797 71.0429 109.05 71.6318 109.05C71.9096 109.05 72.1294 108.988 72.2828 108.859C72.4363 108.735 72.5151 108.577 72.5151 108.387C72.5151 108.237 72.4695 108.121 72.3782 108.034C72.287 107.947 72.0838 107.868 71.7686 107.794L71.5695 107.744C71.2751 107.673 71.0512 107.599 70.8936 107.524C70.736 107.449 70.6074 107.337 70.4996 107.184C70.3918 107.031 70.342 106.861 70.342 106.666C70.342 106.346 70.4664 106.077 70.7111 105.849C70.9558 105.625 71.2917 105.509 71.7147 105.509C72.4819 105.509 72.9754 105.811 73.1993 106.417ZM66.8336 107.491C66.6512 107.474 66.477 107.466 66.3152 107.466C65.2121 107.466 64.6606 107.777 64.6606 108.399C64.6606 108.59 64.7186 108.743 64.8389 108.864C64.9592 108.98 65.125 109.038 65.3365 109.038C65.6766 109.038 65.9876 108.893 66.2779 108.602C66.5682 108.312 66.7548 107.939 66.8336 107.491ZM67.2069 109.419H66.6014C66.5972 109.34 66.5972 109.278 66.5972 109.229C66.5972 109.029 66.618 108.847 66.6636 108.673C66.2779 109.245 65.801 109.531 65.2287 109.531C64.8679 109.531 64.5776 109.423 64.3495 109.204C64.1215 108.984 64.0095 108.71 64.0095 108.378C64.0095 108.009 64.1754 107.69 64.4988 107.429C64.8264 107.167 65.4319 107.035 66.3235 107.035C66.4065 107.035 66.5972 107.043 66.9 107.06C66.9332 106.894 66.9497 106.761 66.9497 106.662C66.9497 106.18 66.6553 105.936 66.0664 105.936C65.548 105.936 65.1789 106.151 64.9592 106.579L64.4035 106.338C64.7062 105.757 65.2453 105.471 66.0249 105.471C66.4562 105.471 66.817 105.567 67.1115 105.757C67.4018 105.948 67.5469 106.218 67.5469 106.562C67.5469 106.703 67.4515 107.367 67.2649 108.548C67.2193 108.868 67.1944 109.104 67.1944 109.258C67.1944 109.278 67.1986 109.332 67.2069 109.419ZM60.754 107.491C60.5716 107.474 60.3974 107.466 60.2357 107.466C59.1326 107.466 58.581 107.777 58.581 108.399C58.581 108.59 58.6391 108.743 58.7593 108.864C58.8796 108.98 59.0455 109.038 59.257 109.038C59.5929 109.038 59.9081 108.893 60.1983 108.602C60.4928 108.312 60.6753 107.939 60.754 107.491ZM61.1273 109.419H60.5218C60.5177 109.34 60.5177 109.278 60.5177 109.229C60.5177 109.029 60.5384 108.847 60.584 108.673C60.1983 109.245 59.7214 109.531 59.1491 109.531C58.7884 109.531 58.4981 109.423 58.27 109.204C58.0419 108.984 57.9299 108.71 57.9299 108.378C57.9299 108.009 58.0958 107.69 58.4193 107.429C58.7469 107.167 59.3523 107.035 60.244 107.035C60.3269 107.035 60.5177 107.043 60.8204 107.06C60.8536 106.894 60.8702 106.761 60.8702 106.662C60.8702 106.18 60.5757 105.936 59.9868 105.936C59.4685 105.936 59.0994 106.151 58.8796 106.579L58.3239 106.338C58.6266 105.757 59.1657 105.471 59.9454 105.471C60.3767 105.471 60.7375 105.567 61.0319 105.757C61.3222 105.948 61.4673 106.218 61.4673 106.562C61.4673 106.703 61.372 107.367 61.1853 108.548C61.1397 108.868 61.1148 109.104 61.1148 109.258C61.1148 109.278 61.119 109.332 61.1273 109.419ZM57.5359 105.587L56.9305 109.175C56.8641 109.581 56.7936 109.875 56.7231 110.066C56.6526 110.253 56.5199 110.415 56.3209 110.547C56.1259 110.68 55.8896 110.746 55.6159 110.746C55.4749 110.746 55.3007 110.73 55.0933 110.701L55.168 110.245C55.3422 110.265 55.479 110.274 55.5702 110.274C55.7486 110.274 55.8896 110.236 55.9932 110.157C56.0969 110.079 56.1633 109.987 56.1964 109.88C56.2296 109.772 56.2752 109.54 56.3416 109.175L56.9429 105.587H57.5359ZM57.735 104.949H56.9678L57.0839 104.252H57.8511L57.735 104.949ZM52.9908 107.118H55.1597C55.1638 107.039 55.168 106.977 55.168 106.935C55.168 106.624 55.0809 106.38 54.9067 106.193C54.7284 106.006 54.5003 105.915 54.2183 105.915C53.899 105.915 53.6294 106.035 53.4055 106.272C53.1815 106.512 53.0447 106.794 52.9908 107.118ZM55.5537 108.524C55.1597 109.191 54.6081 109.527 53.899 109.527C53.4179 109.527 53.024 109.37 52.7212 109.054C52.4185 108.739 52.265 108.312 52.265 107.777C52.265 107.118 52.4558 106.566 52.8332 106.127C53.2106 105.687 53.6792 105.463 54.239 105.463C54.5169 105.463 54.7699 105.521 55.0104 105.641C55.2509 105.757 55.4334 105.944 55.5661 106.197C55.6988 106.45 55.7652 106.757 55.7652 107.118C55.7652 107.246 55.7527 107.391 55.7361 107.557H52.9161C52.8995 107.678 52.8912 107.777 52.8912 107.856C52.8912 108.204 52.9825 108.49 53.165 108.706C53.3474 108.926 53.5962 109.034 53.9114 109.034C54.1271 109.034 54.322 108.984 54.4962 108.888C54.6703 108.793 54.8569 108.594 55.0602 108.291L55.5537 108.524ZM51.7923 105.33L51.2407 105.538C51.1453 105.252 50.9795 105.023 50.7431 104.858C50.5067 104.688 50.2371 104.6 49.9303 104.6C49.557 104.6 49.2792 104.692 49.0926 104.87C48.9101 105.048 48.8147 105.26 48.8147 105.504C48.8147 105.666 48.8562 105.807 48.935 105.919C49.0138 106.035 49.1216 106.122 49.2543 106.176C49.387 106.234 49.6275 106.305 49.98 106.392C50.4445 106.508 50.7721 106.616 50.967 106.711C51.1619 106.807 51.3278 106.956 51.4647 107.163C51.6015 107.371 51.672 107.619 51.672 107.906C51.672 108.391 51.4937 108.785 51.137 109.079C50.7804 109.374 50.3076 109.523 49.7146 109.523C48.6032 109.523 47.9024 109.046 47.6079 108.084L48.1719 107.881C48.4041 108.627 48.9184 109.005 49.7146 109.005C50.1418 109.005 50.4652 108.901 50.6933 108.694C50.9173 108.486 51.0292 108.246 51.0292 107.972C51.0292 107.806 50.9878 107.657 50.909 107.532C50.826 107.408 50.7223 107.317 50.5938 107.255C50.4652 107.196 50.2579 107.13 49.9676 107.06C49.5238 106.952 49.1838 106.848 48.9433 106.736C48.7027 106.628 48.5161 106.471 48.3751 106.272C48.2383 106.068 48.1719 105.836 48.1719 105.563C48.1719 105.148 48.3295 104.804 48.6405 104.522C48.9515 104.244 49.3621 104.103 49.8763 104.103C50.826 104.115 51.4605 104.522 51.7923 105.33Z" fill="white"/>
<path d="M104.755 97.9449C112.929 97.9449 118.668 93.7232 118.668 86.1963V86.0885C118.668 79.4822 114.339 76.7245 106.65 74.7214C100.102 73.0419 98.4762 72.2332 98.4762 69.7408V69.633C98.4762 67.7917 100.156 66.332 103.349 66.332C106.542 66.332 109.843 67.7378 113.202 70.0684L117.532 63.7898C113.688 60.7044 108.981 58.9709 103.457 58.9709C95.7143 58.9709 90.1946 63.5161 90.1946 70.3919V70.4997C90.1946 78.0225 95.1212 80.1375 102.752 82.0824C109.084 83.7081 110.387 84.7905 110.387 86.9013V87.0091C110.387 89.2278 108.33 90.5839 104.921 90.5839C100.591 90.5839 97.0164 88.7965 93.6076 85.9807L88.6809 91.8819C93.226 95.9419 99.0195 97.9449 104.755 97.9449ZM70.973 97.9988C81.1498 97.9988 87.5902 92.3671 87.5902 80.8922V59.5101H79.2546V81.2157C79.2546 87.2248 76.1692 90.3102 71.0808 90.3102C65.9924 90.3102 62.907 87.117 62.907 80.9462V59.5101H54.5714V81.1618C54.5714 92.3132 60.7961 97.9988 70.973 97.9988ZM38.0579 97.9449C42.1718 97.9449 45.5806 96.7547 47.9113 94.4282C50.1838 92.1556 51.486 88.7965 51.486 84.3053V59.5101H42.9348V83.9237C42.9348 88.3072 40.9857 90.2024 37.8464 90.2024C35.1923 90.2024 33.0814 88.7965 30.9167 86.412L25.6665 92.2593C28.2584 95.3447 32.1566 97.9449 38.0579 97.9449Z" fill="white"/>
<path d="M182.664 97.4014H191V59.5098H182.664V97.4014ZM165.935 97.9447C174.109 97.9447 179.849 93.723 179.849 86.1961V86.0882C179.849 79.482 175.519 76.7242 167.83 74.7212C161.282 73.0416 159.657 72.233 159.657 69.7406V69.6328C159.657 67.7915 161.336 66.3317 164.529 66.3317C167.723 66.3317 171.024 67.7376 174.383 70.0682L178.712 63.7896C174.868 60.7042 170.161 58.9707 164.637 58.9707C156.895 58.9707 151.375 63.5159 151.375 70.3917V70.4995C151.375 78.0222 156.302 80.1372 163.932 82.0822C170.265 83.7078 171.567 84.7902 171.567 86.9011V87.0089C171.567 89.2276 169.51 90.5836 166.101 90.5836C161.772 90.5836 158.197 88.7963 154.788 85.9804L149.861 91.8817C154.402 95.9416 160.196 97.9447 165.935 97.9447ZM129.445 78.6194V67.0367H135.886C140.054 67.0367 142.654 69.0397 142.654 72.7762V72.8841C142.654 76.1312 140.219 78.6236 136.048 78.6236H129.445V78.6194ZM121.11 97.4014H129.445V86.0343H135.778C144.275 86.0343 151.097 81.4892 151.097 72.7182V72.6103C151.097 64.8678 145.631 59.5098 136.591 59.5098H121.11V97.4014Z" fill="#F07F3C"/>
<path fill-rule="evenodd" clip-rule="evenodd" d="M24.8489 73.6308C25.077 73.4111 24.9816 73.6184 24.7618 73.2079L23.808 71.2878C23.6628 70.985 23.5799 70.7445 23.4265 70.421C22.4478 68.3807 20.735 63.8314 20.2872 61.8201C19.8932 60.0368 20.6521 60.3893 21.0958 60.3893C21.3239 60.7252 21.5313 60.9367 21.7594 61.3514C22.3109 62.3467 22.8542 63.8231 23.2316 64.8723L25.1226 69.7202C25.7861 71.2712 27.5984 74.9164 28.5107 76.4467C28.7347 76.8241 28.8881 77.1102 29.1079 77.4752C29.3941 77.9562 29.3899 78.205 29.8337 78.4953C29.5392 77.2098 28.349 66.0832 28.3324 64.3912C28.2744 58.6476 28.5729 56.9929 29.4563 51.8962C29.5599 51.2866 29.7922 50.8801 29.8337 50.2747C30.3437 50.2332 30.7377 50.0383 31.1234 49.8144C35.6437 47.239 38.8535 44.7052 40.5247 39.6126C41.0431 38.0409 41.7025 35.5527 41.6901 33.5455C41.3002 33.645 41.5822 33.4957 41.1136 33.9602L40.3671 34.715C40.3506 34.7315 40.3215 34.7606 40.3049 34.7772C38.4554 36.548 36.1123 38.1197 33.8687 39.3265C33.5121 39.5172 33.1762 39.6126 32.8278 39.7826C27.1547 42.5446 18.591 43.6892 13.0754 40.1849C11.2259 39.0113 10.272 38.2358 8.87449 36.3945L7.7133 34.5615C7.60133 34.35 7.5101 34.1136 7.40228 33.8731C5.52366 29.6763 6.22451 24.6791 7.98286 20.9302C5.69369 22.4812 3.67409 27.6857 3.20132 31.0034C2.28897 37.3608 4.06391 41.3668 7.43546 46.2023C7.68843 46.5631 7.75892 46.5755 8.02018 46.8658C8.269 47.1478 8.29804 47.2556 8.58004 47.5542C9.02792 48.027 9.28919 48.3878 9.7661 48.8647C11.4996 50.5982 10.8609 49.4826 11.653 51.8464C12.0967 53.1693 12.5197 54.3098 12.9635 55.529C14.3154 59.2447 16.3267 62.8983 18.6283 66.0915C18.8191 66.3528 18.9642 66.5353 19.1674 66.8048L24.8489 73.6308Z" fill="#F07F3C"/>
<path fill-rule="evenodd" clip-rule="evenodd" d="M20.8344 24.5173C25.4003 24.5173 29.0995 28.2207 29.0995 32.7824C29.0995 37.3483 25.4003 41.0475 20.8344 41.0475C16.2685 41.0475 12.5693 37.3442 12.5693 32.7824C12.5693 28.2207 16.2685 24.5173 20.8344 24.5173Z" fill="#F07F3C"/>
<path fill-rule="evenodd" clip-rule="evenodd" d="M40.9355 17.874C44.8006 18.6703 47.7325 22.1123 47.7325 26.2054V46.1361C47.7325 50.814 43.9048 54.6417 39.2269 54.6417H33.4667L34.2588 60.7877L26.9931 54.6417H8.50559C3.82772 54.6417 0 50.814 0 46.1361V26.2054C0 22.1123 2.92781 18.6703 6.79701 17.874V20.0139C5.71463 20.3166 4.74422 20.8931 3.97287 21.6686C2.80755 22.8339 2.08596 24.4388 2.08596 26.2054V46.1361C2.08596 47.9028 2.80755 49.5077 3.97287 50.673C5.13819 51.8383 6.7431 52.5641 8.50974 52.5641H26.9973V52.5682C27.47 52.5682 27.947 52.73 28.3368 53.0576L31.5217 55.7532L31.4346 55.0938C31.4014 54.9486 31.3849 54.7993 31.3849 54.6459C31.3849 53.4972 32.3179 52.5641 33.4667 52.5641H39.2269C40.9894 52.5641 42.5985 51.8425 43.7638 50.673C44.9291 49.5077 45.6548 47.9028 45.6548 46.1361V26.2054C45.6548 24.4388 44.9332 22.8339 43.7638 21.6686C42.9883 20.8931 42.0179 20.3125 40.9396 20.0139V17.874H40.9355Z" fill="white"/>
<path fill-rule="evenodd" clip-rule="evenodd" d="M22.4772 7.09974H31.5717V27.9013H28.9674C27.5781 25.5914 25.2309 23.9243 22.4772 23.4433V7.09974ZM8.78369 0H21.0755V23.2981C20.9967 23.2981 20.9179 23.294 20.8391 23.294C17.3888 23.294 14.3656 25.1394 12.7068 27.893H8.78369V0ZM32.8407 11.7237H39.9114V27.8972H32.8407V11.7237Z" fill="white"/>
</svg>
