<svg width="129" height="129" viewBox="0 0 129 129" fill="none" xmlns="http://www.w3.org/2000/svg">
<path d="M9.30815e-06 20C4.1674e-06 8.9543 8.95431 0 20 0L94.4697 0L129 2.84388e-05L6.00375e-05 129L9.30815e-06 20Z" fill="url(#paint0_linear_2_121)"/>
<path d="M13.169 51.0127L11.478 52.7037L21.1631 57.4179L23.1247 55.4562L18.407 45.7747L16.7196 47.4621L20.4459 54.6758L20.3791 54.7426L13.169 51.0127Z" fill="white"/>
<path d="M28.044 50.537L26.9366 48.3609L29.5345 45.763L31.7106 46.8704L33.3417 45.2392L23.6602 40.5215L21.6986 42.4831L26.4128 52.1681L28.044 50.537ZM26.1351 46.786L24.2965 43.1756L24.3527 43.1194L27.9631 44.958L26.1351 46.786Z" fill="white"/>
<path d="M35.0584 33.7777L36.6052 32.2309C34.9846 31.004 32.7277 31.2571 31.1 32.8848C29.1982 34.7866 29.1033 37.6236 31.4375 39.9578C33.7155 42.2358 36.4998 42.278 38.5282 40.2496C40.3457 38.4321 40.4933 35.9854 38.5985 34.0906L37.6915 33.1836L34.6788 36.1963L35.8248 37.3423L37.3716 35.7956C38.2434 36.7096 38.2013 37.8837 37.1888 38.8962C36.0463 40.0387 34.4714 39.9051 32.9668 38.4005C31.4692 36.9029 31.3707 35.3069 32.4711 34.2066C33.255 33.4226 34.1901 33.2961 35.0584 33.7777Z" fill="white"/>
<path d="M44.9934 33.5876L43.886 31.4115L46.4839 28.8136L48.66 29.921L50.2911 28.2898L40.6096 23.5721L38.648 25.5337L43.3622 35.2187L44.9934 33.5876ZM43.0845 29.8366L41.2459 26.2262L41.3022 26.17L44.9125 28.0086L43.0845 29.8366Z" fill="white"/>
<path d="M51.0569 17.266L52.5158 15.807C51.2116 14.545 49.2711 14.7137 47.668 16.3168C46.0896 17.8952 45.8048 19.9236 47.1196 21.2243C48.1778 22.2895 49.5347 22.1489 51.0429 21.2243L52.0237 20.6373C52.9974 20.0432 53.6583 19.8322 54.147 20.3138C54.6708 20.8447 54.5302 21.7024 53.7568 22.4758C52.9658 23.2668 52.0307 23.4707 51.2608 22.7993L49.7878 24.2722C51.3839 25.7909 53.3033 25.4815 55.0505 23.7344C56.8082 21.9766 57.0015 20.1029 55.6868 18.7811C54.4845 17.5859 52.9447 17.853 51.412 18.8233L50.6105 19.3155C49.8406 19.7971 49.0848 20.0889 48.5785 19.5615C48.1145 19.0975 48.1848 18.3452 48.9301 17.5999C49.6578 16.8722 50.4347 16.7562 51.0569 17.266Z" fill="white"/>
<path d="M19.4956 83.1269L24.1044 78.5182L22.8494 77.2632L19.7628 80.3497L13.8182 74.4051L12.296 75.9273L19.4956 83.1269Z" fill="white"/>
<path d="M20.7219 67.5014L19.1998 69.0236L26.3994 76.2232L27.9216 74.701L20.7219 67.5014Z" fill="white"/>
<path d="M23.2613 64.9621L30.4609 72.1617L31.9374 70.6852L27.2337 65.9815L27.2935 65.9218L33.8252 68.7271L34.8306 67.7217L32.0428 61.2076L32.1026 61.1478L36.7887 65.8339L38.2652 64.3574L31.0655 57.1578L29.1883 59.035L32.0428 65.855L31.9585 65.9394L25.1385 63.0848L23.2613 64.9621Z" fill="white"/>
<path d="M35.1288 53.0945L33.6066 54.6167L40.8062 61.8163L42.3284 60.2941L35.1288 53.0945Z" fill="white"/>
<path d="M38.6489 52.0844L40.8531 49.8802L46.7977 55.8249L48.3023 54.3202L42.3577 48.3756L44.5619 46.1714L43.3069 44.9164L37.3939 50.8294L38.6489 52.0844Z" fill="white"/>
<path d="M53.1188 49.5038L52.0114 47.3277L54.6093 44.7298L56.7854 45.8372L58.4165 44.206L48.735 39.4883L46.7734 41.4499L51.4876 51.135L53.1188 49.5038ZM51.2099 45.7528L49.3713 42.1425L49.4276 42.0862L53.0379 43.9248L51.2099 45.7528Z" fill="white"/>
<path d="M63.1223 39.5003C65.3159 37.3067 65.2878 34.6209 63.0379 32.371C60.795 30.1281 58.1163 30.107 55.9437 32.2796L53.3704 34.8529L60.57 42.0525L63.1223 39.5003ZM60.788 39.2261L56.1968 34.6349L57.1671 33.6647C58.517 32.3147 59.9197 32.2901 61.5192 33.8897C63.1258 35.4962 63.1082 36.9059 61.7548 38.2594L60.788 39.2261Z" fill="white"/>
<path d="M69.8942 32.7284L68.7868 30.5523L71.3847 27.9544L73.5608 29.0618L75.1919 27.4306L65.5104 22.7129L63.5488 24.6745L68.263 34.3596L69.8942 32.7284ZM67.9853 28.9774L66.1467 25.3671L66.2029 25.3108L69.8133 27.1494L67.9853 28.9774Z" fill="white"/>
<path d="M75.9577 16.4068L77.4166 14.9479C76.1124 13.6858 74.1719 13.8546 72.5688 15.4576C70.9904 17.0361 70.7056 19.0645 72.0204 20.3652C73.0786 21.4304 74.4355 21.2897 75.9436 20.3652L76.9245 19.7781C77.8982 19.184 78.5591 18.9731 79.0478 19.4547C79.5716 19.9855 79.431 20.8433 78.6576 21.6167C77.8666 22.4077 76.9315 22.6116 76.1616 21.9401L74.6886 23.4131C76.2846 24.9317 78.2041 24.6224 79.9513 22.8752C81.709 21.1175 81.9023 19.2438 80.5875 17.922C79.3853 16.7267 77.8455 16.9939 76.3128 17.9641L75.5112 18.4563C74.7414 18.9379 73.9855 19.2297 73.4793 18.7024C73.0153 18.2383 73.0856 17.486 73.8309 16.7408C74.5586 16.0131 75.3355 15.8971 75.9577 16.4068Z" fill="white"/>
<defs>
<linearGradient id="paint0_linear_2_121" x1="16.607" y1="112.391" x2="110.039" y2="18.9589" gradientUnits="userSpaceOnUse">
<stop stop-color="#31306C"/>
<stop offset="0.484375" stop-color="#643A9B"/>
<stop offset="1" stop-color="#F07F3C"/>
</linearGradient>
</defs>
</svg>
