<svg width="23" height="23" viewBox="0 0 23 23" fill="none" xmlns="http://www.w3.org/2000/svg">
<path d="M10.8461 1.36587C11.2374 0.73656 12.1533 0.73656 12.5445 1.36588L15.6686 6.39042C15.8062 6.61184 16.0249 6.77074 16.2781 6.83324L22.0221 8.25169C22.7415 8.42935 23.0245 9.30044 22.5469 9.86704L18.7337 14.3908C18.5656 14.5902 18.4821 14.8473 18.5009 15.1073L18.9268 21.0085C18.9802 21.7476 18.2392 22.286 17.5527 22.0069L12.072 19.7782C11.8305 19.68 11.5601 19.68 11.3186 19.7782L5.83788 22.0069C5.15143 22.286 4.41044 21.7476 4.46379 21.0085L4.88976 15.1073C4.90853 14.8473 4.82499 14.5902 4.65695 14.3908L0.843702 9.86704C0.3661 9.30044 0.649133 8.42935 1.36856 8.25169L7.11256 6.83324C7.36569 6.77074 7.58439 6.61184 7.72206 6.39042L10.8461 1.36587Z" fill="#F07F3C"/>
</svg>
