<svg width="26" height="25" viewBox="0 0 26 25" fill="none" xmlns="http://www.w3.org/2000/svg">
<mask id="mask0_2_102" style="mask-type:alpha" maskUnits="userSpaceOnUse" x="1" y="0" width="23" height="23">
<path d="M11.8461 1.36587C12.2374 0.73656 13.1533 0.73656 13.5445 1.36588L16.6686 6.39042C16.8062 6.61184 17.0249 6.77074 17.2781 6.83324L23.0221 8.25169C23.7415 8.42935 24.0245 9.30044 23.5469 9.86704L19.7337 14.3908C19.5656 14.5902 19.4821 14.8473 19.5009 15.1073L19.9268 21.0085C19.9802 21.7476 19.2392 22.286 18.5527 22.0069L13.072 19.7782C12.8305 19.68 12.5601 19.68 12.3186 19.7782L6.83788 22.0069C6.15143 22.286 5.41044 21.7476 5.46379 21.0085L5.88976 15.1073C5.90853 14.8473 5.82499 14.5902 5.65695 14.3908L1.8437 9.86704C1.3661 9.30044 1.64913 8.42935 2.36856 8.25169L8.11256 6.83324C8.36569 6.77074 8.58439 6.61184 8.72206 6.39042L11.8461 1.36587Z" fill="#F07F3C"/>
</mask>
<g mask="url(#mask0_2_102)">
<rect x="-0.804688" width="13.5" height="23" fill="#F07F3C"/>
<rect x="12.6953" width="13.5" height="23" fill="#8B8B8B"/>
</g>
</svg>
