<svg width="26" height="25" viewBox="0 0 26 25" fill="none" xmlns="http://www.w3.org/2000/svg">
<circle cx="12.6953" cy="12.5" r="12.5" fill="#31306C"/>
<path d="M12.5909 18.7273H13.6449L13.6499 17.5888C15.7827 17.4347 17.0057 16.2614 17.0107 14.5959C17.0057 12.831 15.549 12.0256 14.0178 11.6626L13.6896 11.5781L13.7095 8.73935C14.505 8.87855 15.017 9.35582 15.0966 10.0717H16.8714C16.8416 8.49077 15.5987 7.33736 13.7195 7.15838L13.7244 6H12.6705L12.6655 7.15838C10.8011 7.3473 9.45881 8.49077 9.46378 10.1364C9.46378 11.598 10.5028 12.4382 12.1783 12.8707L12.6257 12.9851L12.6058 15.9929C11.7159 15.8537 11.0746 15.3466 11.0099 14.4467H9.19531C9.26491 16.3111 10.5476 17.4197 12.5959 17.5888L12.5909 18.7273ZM13.6598 15.9929L13.6797 13.2635C14.5845 13.527 15.1612 13.875 15.1662 14.581C15.1612 15.3168 14.5696 15.8438 13.6598 15.9929ZM12.6357 11.3097C11.9496 11.0909 11.3232 10.728 11.3331 10.022C11.3381 9.38068 11.8203 8.88352 12.6555 8.73935L12.6357 11.3097Z" fill="#F07F3C"/>
</svg>
