<svg width="175" height="162" viewBox="0 0 175 162" fill="none" xmlns="http://www.w3.org/2000/svg">
<path d="M161.188 155.697L157.258 156.759L137.873 162L145.916 147.991L87.4476 114.185L29.0592 147.946L37.1267 162L17.7417 156.759L13.8118 155.697L-8.77428e-07 151.963L0.68379 149.427L3.05763 140.616L10.0218 114.782L14.1867 122.038L17.9165 128.536L76.2699 94.7962L76.2699 27.2325L60.329 27.2325L74.5274 13.0131L77.4063 10.1319L87.5214 -7.65136e-06L89.3765 1.8579L95.8201 8.31098L114.714 27.2325L106.357 27.2325L98.6252 27.2325L98.6252 94.7962L157.05 128.579L160.813 122.038L164.978 114.782L171.942 140.616L174.316 149.427L175 151.963L161.188 155.697Z" fill="#313066"/>
<path d="M48.6148 53.3503H47.7412L47.7412 100.14C47.7412 100.453 47.9082 100.74 48.178 100.898L87.0844 123.374C87.3543 123.529 87.6882 123.529 87.958 123.374C88.2279 123.219 88.3948 122.929 88.3948 122.616L88.3948 75.8245C88.3948 75.5118 88.2279 75.2243 87.958 75.067L49.0516 52.5928C48.7818 52.4374 48.4479 52.4374 48.178 52.5928C47.9082 52.7482 47.7412 53.0376 47.7412 53.3503H48.6148L48.178 54.1079L86.6476 76.3315L86.6476 121.103L49.4884 99.6352L49.4884 53.3503L48.6148 53.3503L48.178 54.1079L48.6148 53.3503Z" fill="white"/>
<path d="M126.427 53.3503H125.554L125.554 99.6352L88.3947 121.101L88.3947 76.3296L126.864 54.1059L126.427 53.3503H125.554H126.427L125.991 52.5928L87.0843 75.0689C86.8144 75.2243 86.6475 75.5137 86.6475 75.8265L86.6475 122.616C86.6475 122.929 86.8144 123.217 87.0843 123.374C87.3541 123.529 87.688 123.529 87.9579 123.374L126.864 100.896C127.134 100.74 127.301 100.451 127.301 100.138L127.301 53.3503C127.301 53.0376 127.134 52.7501 126.864 52.5928C126.594 52.4374 126.261 52.4374 125.991 52.5928L126.427 53.3503Z" fill="white"/>
<path d="M87.5212 30.8741L87.0844 30.1165L48.178 52.5927C47.9082 52.7481 47.7412 53.0375 47.7412 53.3503C47.7412 53.663 47.9082 53.9505 48.178 54.1078L87.0844 76.584C87.3543 76.7394 87.6882 76.7394 87.958 76.584L126.864 54.1059C127.134 53.9505 127.301 53.661 127.301 53.3483C127.301 53.0356 127.134 52.7481 126.864 52.5908L87.958 30.1165C87.6882 29.9612 87.3543 29.9612 87.0844 30.1165L87.5212 30.8741L87.0844 31.6317L124.68 53.3503L87.5212 74.8163L50.362 53.3503L87.958 31.6317L87.5212 30.8741L87.0844 31.6317L87.5212 30.8741Z" fill="white"/>
<path d="M142 63.5928L142 110.203L103 132.593L103 85.9826L142 63.5928Z" fill="#F07F3C"/>
</svg>
