<svg width="26" height="25" viewBox="0 0 26 25" fill="none" xmlns="http://www.w3.org/2000/svg">
<circle cx="12.6953" cy="12.5" r="12.5" fill="#31306C"/>
<path d="M18.7454 15.6611L15.9795 13.5772C15.9142 13.528 15.8762 13.4537 15.8762 13.3752V11.8841C15.8762 11.8055 15.9142 11.7312 15.9795 11.682L18.7454 9.59819C18.9264 9.46183 19.1953 9.5826 19.1953 9.80027V15.459C19.1953 15.6767 18.9264 15.7974 18.7454 15.6611Z" fill="#F07F3C"/>
<path d="M6.19531 9.51852C6.19531 9.23215 6.44298 9 6.7485 9H13.1102C14.3323 9 15.323 9.92859 15.323 11.0741V15.4815C15.323 15.7679 15.0753 16 14.7698 16H8.40808C7.186 16 6.19531 15.0714 6.19531 13.9259V9.51852Z" fill="#F07F3C"/>
</svg>
