<svg width="36" height="58" viewBox="0 0 36 58" fill="none" xmlns="http://www.w3.org/2000/svg">
<path fill-rule="evenodd" clip-rule="evenodd" d="M19.05 54.4058C19.2185 54.2434 19.1481 54.3966 18.9857 54.0933L18.2809 52.6745C18.1736 52.4508 18.1123 52.2731 17.999 52.0341C17.2758 50.5265 16.0103 47.165 15.6793 45.6789C15.3882 44.3613 15.949 44.6217 16.2769 44.6217C16.4454 44.8699 16.5986 45.0262 16.7671 45.3326C17.1747 46.068 17.5761 47.1589 17.8549 47.9342L19.2522 51.5162C19.7425 52.6623 21.0816 55.3557 21.7557 56.4864C21.9212 56.7653 22.0346 56.9767 22.197 57.2463C22.4084 57.6018 22.4053 57.7857 22.7332 58.0001C22.5156 57.0502 21.6362 48.8289 21.6239 47.5787C21.581 43.3347 21.8017 42.1121 22.4544 38.3462C22.531 37.8957 22.7026 37.5954 22.7332 37.1481C23.1101 37.1174 23.4012 36.9734 23.6862 36.8079C27.0262 34.905 29.3979 33.0328 30.6328 29.2699C31.0158 28.1086 31.503 26.2701 31.4938 24.787C31.2058 24.8605 31.4142 24.7502 31.0679 25.0934L30.5163 25.6511C30.5041 25.6633 30.4826 25.6848 30.4704 25.697C29.1037 27.0055 27.3724 28.1668 25.7147 29.0585C25.4512 29.1995 25.203 29.2699 24.9456 29.3956C20.7537 31.4363 14.4261 32.2821 10.3506 29.6928C8.984 28.8256 8.27923 28.2526 7.24659 26.8921L6.3886 25.5377C6.30587 25.3814 6.23845 25.2068 6.15878 25.029C4.77069 21.928 5.28854 18.2356 6.58777 15.4656C4.89632 16.6116 3.40404 20.4572 3.05472 22.9086C2.38059 27.6061 3.69208 30.5661 6.1833 34.139C6.37022 34.4056 6.4223 34.4148 6.61535 34.6293C6.7992 34.8376 6.82065 34.9173 7.02902 35.1379C7.35996 35.4873 7.55301 35.7538 7.9054 36.1062C9.18624 37.3871 8.71435 36.5628 9.29962 38.3094C9.62749 39.2869 9.94004 40.1296 10.2679 41.0304C11.2669 43.776 12.753 46.4756 14.4537 48.835C14.5946 49.0281 14.7019 49.1629 14.852 49.3621L19.05 54.4058Z" fill="#F07F3C"/>
<path fill-rule="evenodd" clip-rule="evenodd" d="M16.0841 18.1157C19.4578 18.1157 22.1911 20.8521 22.1911 24.2227C22.1911 27.5965 19.4578 30.3297 16.0841 30.3297C12.7104 30.3297 9.97705 27.5934 9.97705 24.2227C9.97705 20.8521 12.7104 18.1157 16.0841 18.1157Z" fill="#F07F3C"/>
<path fill-rule="evenodd" clip-rule="evenodd" d="M30.936 13.207C33.7918 13.7954 35.9582 16.3387 35.9582 19.3631V34.0898C35.9582 37.5462 33.13 40.3745 29.6735 40.3745H25.4173L26.0026 44.9157L20.634 40.3745H6.9737C3.51725 40.3745 0.688965 37.5462 0.688965 34.0898V19.3631C0.688965 16.3387 2.85231 13.7954 5.71124 13.207V14.7882C4.91147 15.0119 4.19444 15.4378 3.6245 16.0108C2.76345 16.8719 2.23027 18.0577 2.23027 19.3631V34.0898C2.23027 35.3951 2.76345 36.581 3.6245 37.442C4.48555 38.3031 5.6714 38.8393 6.97677 38.8393H20.6371V38.8424C20.9864 38.8424 21.3388 38.9619 21.6268 39.204L23.9802 41.1957L23.9158 40.7085C23.8913 40.6012 23.8791 40.4909 23.8791 40.3776C23.8791 39.5288 24.5685 38.8393 25.4173 38.8393H29.6735C30.9758 38.8393 32.1647 38.3061 33.0258 37.442C33.8868 36.581 34.4231 35.3951 34.4231 34.0898V19.3631C34.4231 18.0577 33.8899 16.8719 33.0258 16.0108C32.4528 15.4378 31.7357 15.0088 30.939 14.7882V13.207H30.936Z" fill="#31306C"/>
<path fill-rule="evenodd" clip-rule="evenodd" d="M17.2973 5.24596H24.0171V20.6161H22.0928C21.0663 18.9094 19.3319 17.6775 17.2973 17.3221V5.24596ZM7.1792 0H16.2616V17.2148C16.2034 17.2148 16.1451 17.2118 16.0869 17.2118C13.5375 17.2118 11.3036 18.5754 10.078 20.61H7.1792V0ZM24.9548 8.66258H30.1793V20.6131H24.9548V8.66258Z" fill="#31306C"/>
</svg>
