<svg width="171" height="135" viewBox="0 0 171 135" fill="none" xmlns="http://www.w3.org/2000/svg">
<path d="M18.3177 66.2061L0 135H33.9156L52.2311 66.2061H18.3177Z" fill="#313066"/>
<path d="M77.9944 31.9989L50.5693 135H84.4849L111.91 31.9989H77.9944Z" fill="#313066"/>
<path d="M137.085 0L101.14 135H135.056L171 0H137.085Z" fill="#313066"/>
<path d="M119.518 54.5198C119.518 49.6487 117.59 45.2209 114.464 41.9861C111.589 39.0083 107.69 37.0302 103.343 36.6152C103.374 36.238 103.39 35.8537 103.39 35.467C103.39 31.4754 101.778 27.8515 99.1795 25.2368C96.5809 22.6221 92.9771 21 89.0102 21C86.1586 21 83.4944 21.8393 81.259 23.2823C79.0237 21.8393 76.3595 21 73.5079 21C69.5409 21 65.9395 22.6221 63.3386 25.2368C60.7377 27.8515 59.1256 31.4754 59.1279 35.467C59.1279 35.8537 59.1443 36.238 59.1748 36.6152C54.8282 37.0302 50.9292 39.0083 48.0542 41.9861C44.9284 45.2209 43 49.6487 43 54.5198C43 58.2072 44.106 61.6448 46.0039 64.5C44.106 67.3552 43 70.7928 43 74.4802C43 79.3513 44.9284 83.7791 48.0542 87.0139C50.9292 89.9917 54.8282 91.9698 59.1748 92.3848C59.1443 92.762 59.1279 93.1463 59.1279 93.533C59.1279 97.5246 60.74 101.148 63.3386 103.763C65.9395 106.378 69.5409 108 73.5079 108C76.3595 108 79.0237 107.161 81.259 105.718C83.4944 107.163 86.1586 108.002 89.0102 108C92.9771 108 96.5786 106.378 99.1795 103.763C101.78 101.148 103.392 97.5246 103.39 93.533C103.39 93.1463 103.374 92.762 103.343 92.3848C107.69 91.9698 111.589 89.9917 114.464 87.0139C117.59 83.7767 119.518 79.3513 119.518 74.4802C119.518 70.7928 118.412 67.3552 116.514 64.5C118.412 61.6448 119.518 58.2072 119.518 54.5198ZM97.6869 26.7387C99.9082 28.9762 101.281 32.0554 101.281 35.467C101.281 36.1342 101.225 36.7897 101.124 37.431C101.077 37.7304 101.162 38.0416 101.352 38.275C101.541 38.5085 101.83 38.6499 102.132 38.6593C106.375 38.7914 110.19 40.6068 112.953 43.4644C115.713 46.3243 117.409 50.2169 117.412 54.5198C117.412 57.83 116.406 60.895 114.684 63.439H110.347H104.855C104.145 63.439 103.479 63.1632 102.989 62.7105C102.5 62.2578 102.193 61.6495 102.162 60.9611C102.16 60.921 102.16 60.8833 102.16 60.8455C102.16 60.829 102.162 60.8125 102.162 60.796C102.172 60.2962 102.319 59.8341 102.572 59.4403C102.577 59.4309 102.582 59.4215 102.589 59.4144L102.593 59.4073L102.605 59.3908C102.64 59.3437 102.668 59.2918 102.694 59.2399C102.708 59.2163 102.722 59.1928 102.736 59.1692C103.156 58.4524 103.402 57.6154 103.402 56.7266C103.402 56.7242 103.402 56.7219 103.402 56.7195C103.402 56.637 103.4 56.5545 103.395 56.4719V56.4696C103.341 55.3874 102.922 54.3972 102.272 53.6191C102.179 53.5083 102.083 53.4022 101.98 53.2985C101.162 52.4803 100.049 51.9475 98.821 51.8909C98.746 51.8885 98.6734 51.8862 98.5984 51.8862C97.2745 51.8862 96.0678 52.4285 95.2008 53.3008C94.7673 53.737 94.4158 54.258 94.1722 54.838C93.9285 55.418 93.7949 56.0546 93.7949 56.7195C93.7949 57.639 94.055 58.5067 94.5025 59.2399C94.5283 59.2941 94.5588 59.346 94.5939 59.3932L94.6056 59.4097L94.6103 59.4144C94.6174 59.4262 94.6244 59.438 94.6314 59.4498C94.8868 59.8553 95.0368 60.3292 95.0368 60.8455C95.0368 60.8833 95.0368 60.9233 95.0344 60.9634C95.0087 61.567 94.7697 62.1069 94.383 62.536C94.3268 62.5973 94.2682 62.6563 94.2073 62.7128C93.7176 63.1632 93.0521 63.4414 92.3422 63.4414H90.716H89.685H88.0331H82.3111V53.895C82.3111 52.6336 81.8308 51.4618 81.0341 50.5871C80.2398 49.7124 79.108 49.1229 77.831 49.0687C77.7607 49.0663 77.6927 49.064 77.6225 49.064C76.6735 49.064 75.7854 49.3516 75.0473 49.8397C75.045 49.842 75.0403 49.8444 75.038 49.8467L75.0356 49.8491L75.0075 49.868L75.0051 49.8703C74.9981 49.875 74.9911 49.8774 74.9841 49.8821C74.5623 50.1556 74.0655 50.3159 73.5243 50.3159C72.7768 50.3159 72.109 50.0141 71.6193 49.5214C71.1296 49.0286 70.832 48.3567 70.8296 47.6045C70.8296 47.5833 70.8296 47.5668 70.832 47.5456C70.832 47.522 70.832 47.5008 70.8343 47.4772C70.8648 46.7982 71.1577 46.1711 71.6216 45.6995C72.0879 45.2303 72.7089 44.9309 73.3837 44.8979C73.4048 44.8979 73.4259 44.8979 73.4446 44.8955C73.4704 44.8955 73.4962 44.8932 73.5243 44.8932C73.7281 44.8932 73.925 44.9167 74.1124 44.9592C74.403 45.0252 74.6724 45.1384 74.9208 45.2893C74.9419 45.3034 74.963 45.3152 74.9841 45.327C74.9911 45.3317 74.9981 45.3341 75.0051 45.3388L75.0075 45.3411L75.0356 45.36L75.038 45.3624C75.7761 45.8551 76.6711 46.1451 77.6225 46.1451C77.6904 46.1451 77.7607 46.1428 77.8287 46.1404C78.7847 46.098 79.661 45.7585 80.3757 45.2209C80.6123 45.0417 80.8326 44.8413 81.0317 44.622C81.8284 43.7473 82.3064 42.5755 82.3088 41.3141V39.6614V39.659V25.1307C84.2372 23.8576 86.5358 23.122 89.0102 23.122C92.4031 23.122 95.4632 24.5012 97.6869 26.7387ZM49.5655 43.4644C52.3281 40.6045 56.1428 38.7914 60.3862 38.6593C60.6885 38.6499 60.9743 38.5085 61.1665 38.275C61.3586 38.0416 61.443 37.7304 61.3961 37.431C61.2954 36.7897 61.2391 36.1342 61.2391 35.467C61.2391 32.0554 62.6099 28.9762 64.8335 26.7387C67.0548 24.5012 70.115 23.122 73.5079 23.122C75.9822 23.122 78.2809 23.8576 80.2046 25.1237V38.8503V39.2134V41.3071C80.2046 41.7527 80.0968 42.1818 79.907 42.5614C79.8321 42.7123 79.7407 42.8561 79.6399 42.9905C79.5884 43.0565 79.5368 43.1225 79.4806 43.1838C79.0307 43.6766 78.4285 43.9854 77.742 44.0161C77.7021 44.0185 77.6646 44.0185 77.6271 44.0185C77.5615 44.0185 77.4959 44.0161 77.4303 44.0114C77.3507 44.0043 77.2733 43.9949 77.196 43.9807C77.0296 43.9524 76.8703 43.91 76.7157 43.8511C76.6688 43.8346 76.6243 43.8133 76.5798 43.7945C76.561 43.7874 76.5423 43.7803 76.5235 43.7709C76.5188 43.7685 76.5165 43.7662 76.5118 43.7662C76.404 43.7143 76.3009 43.6554 76.2025 43.5893L76.1978 43.5846L76.1814 43.5728C76.1346 43.5375 76.083 43.5092 76.0315 43.4809C75.8745 43.3842 75.7128 43.2923 75.5441 43.2145C75.5113 43.2003 75.4785 43.1862 75.4457 43.172C75.2723 43.0942 75.0918 43.0259 74.9067 42.9716C74.4686 42.8396 74.0046 42.7689 73.5243 42.7689C73.4423 42.7689 73.3603 42.7712 73.2759 42.7759C72.2004 42.8302 71.2163 43.2522 70.443 43.9053C70.3329 43.9996 70.2275 44.0963 70.1244 44.2C69.3113 45.0228 68.7817 46.1404 68.7255 47.3759C68.7255 47.3759 68.7255 47.3759 68.7255 47.3735V47.3759C68.7232 47.4513 68.7208 47.5244 68.7208 47.5998C68.7208 48.9319 69.2597 50.1462 70.1267 51.0185C70.9937 51.8909 72.2004 52.4355 73.5243 52.4332C74.4405 52.4332 75.3004 52.1715 76.0315 51.7188C76.0853 51.6928 76.1369 51.6622 76.1861 51.6268L76.2002 51.615L76.2072 51.6103L76.2048 51.6127C76.6149 51.3415 77.0976 51.1836 77.6271 51.1836C77.6646 51.1836 77.7045 51.1836 77.742 51.1859C78.4285 51.2166 79.0307 51.5254 79.4806 52.0182C79.9281 52.511 80.2046 53.1806 80.2046 53.895V63.439H74.4826H74.1452H72.8307H70.1759C68.9223 63.439 67.7578 63.9224 66.8885 64.724C66.0192 65.5232 65.4334 66.662 65.3795 67.9446V67.9423V67.947C65.3771 68.0154 65.3748 68.0861 65.3748 68.1568C65.3748 69.1164 65.663 70.0147 66.1527 70.7574L66.1551 70.7598L66.1738 70.788L66.1761 70.7904C66.1808 70.7975 66.1832 70.8046 66.1879 70.8116C66.4597 71.236 66.6167 71.7359 66.619 72.2805C66.619 72.3748 66.6143 72.4667 66.6049 72.5587C66.5417 73.1976 66.2582 73.7659 65.8294 74.1973C65.3396 74.6901 64.6718 74.9895 63.9244 74.9919C63.8822 74.9919 63.84 74.9919 63.7978 74.9895C63.2917 74.9659 62.8137 74.7962 62.4107 74.5132C62.2748 74.4189 62.1483 74.3128 62.0311 74.1973C61.5648 73.7281 61.2672 73.1033 61.2344 72.4243C61.2321 72.3748 61.2297 72.3276 61.2297 72.2828C61.2297 71.783 61.3633 71.3232 61.5953 70.9224C61.6164 70.8871 61.6375 70.8493 61.6585 70.814C61.6632 70.8069 61.6656 70.7998 61.6703 70.7928L61.6726 70.7904L61.6913 70.7621L61.6937 70.7598C61.7218 70.7173 61.7452 70.6725 61.771 70.6301C62.2115 69.9133 62.4693 69.0622 62.4693 68.1592C62.4693 68.0885 62.4669 68.0201 62.4646 67.9517V67.9493C62.4224 66.9874 62.085 66.1056 61.5508 65.3865C61.3727 65.1484 61.1735 64.9267 60.9556 64.7263C60.0863 63.9247 58.9217 63.4437 57.6681 63.4414H51.5947H47.8363C46.1141 60.895 45.1088 57.83 45.1088 54.5198C45.1088 50.2169 46.8053 46.3243 49.5655 43.4644ZM64.8312 102.261C62.6099 100.024 61.2368 96.9446 61.2368 93.533C61.2368 92.8658 61.293 92.2103 61.3938 91.569C61.4406 91.2696 61.3563 90.9584 61.1641 90.725C60.972 90.4915 60.6861 90.3501 60.3839 90.3406C56.1404 90.2086 52.3258 88.3932 49.5655 85.5356C46.8053 82.6757 45.1088 78.7831 45.1088 74.4802C45.1088 71.17 46.1141 68.105 47.8363 65.561H51.5947H57.6658C58.3758 65.561 59.0412 65.8368 59.531 66.2895C60.0207 66.7422 60.3276 67.3481 60.3581 68.0389C60.3604 68.079 60.3604 68.1191 60.3604 68.1568C60.3604 68.6873 60.2034 69.1754 59.934 69.588L59.9293 69.5927L59.9176 69.6092C59.8824 69.6587 59.852 69.7106 59.8262 69.7624C59.3787 70.4957 59.1186 71.3633 59.1186 72.2828C59.1186 72.3654 59.1209 72.4502 59.1256 72.5328V72.5351C59.1256 72.5351 59.1256 72.5351 59.1256 72.5328C59.1725 73.4593 59.4864 74.3176 59.9855 75.0343C60.1519 75.2724 60.3393 75.4964 60.5432 75.7015C61.361 76.5197 62.474 77.0525 63.7018 77.1091C63.7768 77.1115 63.8494 77.1138 63.9244 77.1138C65.2483 77.1138 66.455 76.5715 67.3219 75.6992C68.0811 74.9376 68.5896 73.912 68.7044 72.7756C68.7208 72.6129 68.7302 72.4479 68.7302 72.2828C68.7302 71.3633 68.4701 70.4957 68.0226 69.7624C67.9968 69.7106 67.9687 69.6587 67.9335 69.6115L67.9195 69.5927L67.9148 69.5856C67.9077 69.5738 67.9007 69.562 67.8937 69.5502C67.6383 69.1447 67.4883 68.6732 67.4883 68.1568C67.4883 68.1191 67.4883 68.0814 67.4907 68.0413V68.0389C67.5211 67.3481 67.8281 66.7422 68.3178 66.2895C68.8075 65.8392 69.473 65.561 70.1829 65.561H72.8377H74.1522H74.4897H80.2116V75.1074C80.2116 76.3688 80.692 77.5406 81.4887 78.4153C82.283 79.29 83.4147 79.8794 84.6918 79.9337C84.762 79.936 84.83 79.9384 84.9003 79.9384C85.0198 79.9384 85.137 79.9337 85.2541 79.9242C86.0672 79.8629 86.8287 79.5894 87.4707 79.1627C87.4754 79.1603 87.4801 79.158 87.4825 79.1556L87.4848 79.1532L87.5129 79.1344L87.5153 79.132C87.5223 79.1273 87.5293 79.125 87.5363 79.1202C87.9581 78.8467 88.4549 78.6864 88.9961 78.6864C89.2562 78.6864 89.5046 78.7241 89.7389 78.7925C89.7577 78.7972 89.7787 78.8019 89.7975 78.809C90.2193 78.9411 90.5942 79.1745 90.9011 79.481C91.2057 79.7898 91.4377 80.1671 91.5689 80.5915C91.5947 80.6763 91.6181 80.7636 91.6345 80.8508C91.6697 81.0276 91.6884 81.2115 91.6884 81.3978C91.6884 81.3978 91.6884 81.3978 91.6884 81.4002C91.6884 81.4426 91.6884 81.4827 91.6861 81.5275C91.6603 82.1216 91.433 82.6757 91.0651 83.1213C91.0136 83.185 90.9574 83.2463 90.8988 83.3052C90.4325 83.7744 89.8115 84.0738 89.1367 84.1068C89.0875 84.1092 89.0406 84.1115 88.9961 84.1115C88.4549 84.1115 87.9581 83.9536 87.5363 83.6777C87.5293 83.673 87.5223 83.6706 87.5153 83.6659L87.5129 83.6636L87.4848 83.6447L87.4825 83.6424C87.3465 83.5528 87.2036 83.4702 87.0583 83.3948C86.7842 83.251 86.4936 83.1331 86.189 83.0458C86.0484 83.0058 85.9055 82.9728 85.7602 82.9445C85.4814 82.8926 85.1932 82.8619 84.9003 82.8619C84.83 82.8619 84.762 82.8643 84.6918 82.8667H84.6894C83.7334 82.9091 82.8571 83.2486 82.1424 83.7862C81.9057 83.9654 81.6855 84.1658 81.4863 84.385C80.6896 85.2598 80.2116 86.4315 80.2093 87.6929V103.876C78.2856 105.142 75.9869 105.878 73.5126 105.878C70.115 105.878 67.0548 104.499 64.8312 102.261ZM112.953 85.5356C110.19 88.3955 106.375 90.2086 102.132 90.3406C101.83 90.3501 101.544 90.4915 101.352 90.725C101.159 90.9584 101.075 91.2696 101.124 91.569C101.227 92.2103 101.281 92.8658 101.281 93.533C101.281 96.9446 99.9105 100.024 97.6869 102.261C95.4632 104.496 92.4007 105.876 89.0102 105.878C86.5358 105.878 84.2372 105.142 82.3134 103.876V92.8351V89.7866V87.6929C82.3134 87.3369 82.3814 86.9903 82.5056 86.672C82.6298 86.3537 82.8102 86.0637 83.0351 85.8162C83.485 85.3234 84.0896 85.0145 84.7738 84.9839C84.8136 84.9815 84.8511 84.9815 84.8909 84.9815C85.069 84.9815 85.2424 85.0004 85.4088 85.0358C85.4275 85.0405 85.4463 85.0428 85.465 85.0476C85.7719 85.1183 86.0555 85.2432 86.3132 85.413L86.3202 85.4177L86.339 85.4319C86.3859 85.4672 86.4374 85.4955 86.489 85.5215C86.5241 85.5427 86.5592 85.5639 86.5967 85.5851C87.302 85.9954 88.1245 86.2335 88.9938 86.2335C89.036 86.2335 89.0758 86.2311 89.118 86.2311C89.1602 86.2311 89.2 86.2311 89.2422 86.2288C90.0107 86.1887 90.7324 85.9647 91.3627 85.5993C91.7423 85.38 92.0891 85.1112 92.3937 84.8023C93.2068 83.9795 93.7363 82.8596 93.7926 81.6241V81.6218C93.7949 81.5487 93.7973 81.4732 93.7973 81.4002C93.7973 80.9805 93.7387 80.5773 93.6379 80.1883C93.42 79.3419 92.9842 78.5803 92.389 77.9815C91.522 77.1091 90.3153 76.5645 88.9914 76.5668C88.0776 76.5668 87.2153 76.8285 86.4866 77.2789C86.4327 77.3048 86.3812 77.3354 86.3343 77.3708L86.3179 77.3826L86.3109 77.3873C86.0063 77.5901 85.6595 77.7268 85.2869 77.7858C85.2494 77.7928 85.2096 77.7952 85.1698 77.7999C85.0784 77.8093 84.9846 77.8164 84.8909 77.8164C84.8534 77.8164 84.8136 77.8164 84.7738 77.8141C84.345 77.7952 83.949 77.6679 83.6022 77.4533C83.3936 77.326 83.2038 77.1657 83.0351 76.9818C82.5853 76.489 82.3111 75.8194 82.3111 75.105V65.561H88.0331H89.685H90.716H92.3422C93.5957 65.561 94.7603 65.0776 95.6296 64.276C96.4989 63.4767 97.0847 62.338 97.1386 61.053V61.0506C97.1409 60.9823 97.1433 60.9139 97.1433 60.8455V60.8432C97.1433 59.8836 96.8551 58.9853 96.3654 58.2426L96.363 58.2402L96.3443 58.2119L96.3419 58.2096C96.3372 58.2025 96.3349 58.1954 96.3302 58.1884C96.0584 57.764 95.9014 57.2641 95.8991 56.7195C95.8991 55.9674 96.199 55.2954 96.6887 54.8027C97.1784 54.3099 97.8462 54.0105 98.5937 54.0081C98.6359 54.0081 98.678 54.0081 98.7202 54.0105C99.3951 54.0411 100.018 54.3358 100.487 54.8027C100.953 55.2719 101.251 55.8967 101.284 56.5757C101.286 56.6252 101.286 56.6724 101.288 56.7172C101.288 56.8586 101.277 56.9954 101.258 57.1298C101.199 57.5164 101.061 57.8724 100.86 58.186C100.855 58.1931 100.852 58.2002 100.848 58.2072L100.845 58.2096L100.827 58.2379L100.824 58.2402C100.412 58.8674 100.145 59.6054 100.07 60.3976C100.056 60.5437 100.046 60.6923 100.046 60.8432C100.046 60.9139 100.049 60.9823 100.051 61.0506C100.051 61.0506 100.051 61.0506 100.051 61.053C100.1 62.1753 100.553 63.1891 101.248 63.9601C101.347 64.0709 101.452 64.1746 101.56 64.276C102.429 65.0776 103.594 65.5586 104.848 65.561H110.34H114.677C116.399 68.105 117.405 71.17 117.405 74.4802C117.409 78.7831 115.713 82.6757 112.953 85.5356Z" fill="white"/>
<path d="M129.424 84.0684C129.424 80.5882 128.293 77.3676 126.376 74.7563H116.592C114.741 74.7563 113.144 73.3396 113.062 71.4983C113.029 70.746 113.243 70.0442 113.627 69.4656C113.634 69.4568 113.638 69.448 113.645 69.4392C113.652 69.4282 113.66 69.4172 113.669 69.4062H113.665C114.054 68.8079 114.266 68.0863 114.226 67.3141C114.135 65.5278 112.655 64.0627 110.862 63.9813C108.834 63.8889 107.164 65.4992 107.164 67.4967C107.164 68.2007 107.371 68.8563 107.729 69.4062H107.725C107.734 69.4172 107.743 69.4282 107.749 69.4392C107.756 69.448 107.76 69.4568 107.767 69.4656C108.151 70.0442 108.363 70.746 108.332 71.4983C108.253 73.3396 106.654 74.7563 104.802 74.7563H102.297H100.74H94.3516V87.8127C94.4775 87.7511 94.6012 87.6829 94.7183 87.6059C94.7271 87.5993 94.7359 87.5949 94.7448 87.5883C94.7558 87.5817 94.7669 87.5729 94.7779 87.5641V87.5685C95.3302 87.2121 95.9884 87.0053 96.6953 87.0053C98.7033 87.0053 100.318 88.6706 100.225 90.6879C100.144 92.4764 98.6724 93.9481 96.8787 94.0383C96.1033 94.0779 95.3765 93.8667 94.7779 93.4795V93.4839C94.7669 93.4752 94.7558 93.4663 94.7448 93.4597C94.7359 93.4531 94.7271 93.4488 94.7183 93.4422C94.6012 93.3652 94.4797 93.297 94.3516 93.2354V98.6889V112.02C96.4081 113.49 98.933 114.354 101.659 114.354C108.597 114.354 114.222 108.753 114.222 101.846C114.222 101.168 114.164 100.504 114.06 99.857C122.589 99.593 129.424 92.6282 129.424 84.0684Z" fill="#F07F3C"/>
</svg>
