<svg width="182" height="147" viewBox="0 0 182 147" fill="none" xmlns="http://www.w3.org/2000/svg">
<path d="M110.467 120.142C104.364 122.749 97.6705 124.191 90.5758 124.193C83.5463 124.191 76.9096 122.773 70.8532 120.214C61.7736 116.375 54.0112 109.932 48.5452 101.836C45.8111 97.7874 43.6511 93.3318 42.1732 88.579C40.6952 83.8241 39.8972 78.774 39.8972 73.4998H56.9936L42.1141 58.6161L39.0991 55.6003L28.4968 44.995L26.5526 46.9397L19.8 53.6943L0 73.4998H17.0965C17.0944 83.6164 19.1526 93.3135 22.876 102.113C28.4622 115.318 37.7637 126.516 49.4857 134.44C55.3467 138.4 61.8184 141.542 68.7299 143.693C75.6393 145.843 82.9905 147 90.5758 147C100.783 147.002 110.563 144.904 119.427 141.115C128.293 137.325 136.248 131.853 142.903 125.101L126.666 109.087C122.063 113.756 116.567 117.536 110.467 120.142Z" fill="#313066"/>
<path d="M164.056 73.5C164.058 63.3834 161.999 53.6863 158.276 44.8873C152.69 31.6815 143.388 20.4837 131.666 12.5602C125.805 8.59951 119.334 5.45742 112.422 3.30703C105.513 1.15461 98.1594 1.48139e-06 90.5762 1.48139e-06C80.3688 -0.00203487 70.5869 2.09541 61.7251 5.88506C52.8593 9.6747 44.9035 15.1484 38.2485 21.903L54.4859 37.9128C59.0888 33.2434 64.5854 29.464 70.6846 26.8574C76.7858 24.2509 83.4815 22.8092 90.5762 22.8071C97.6037 22.8092 104.242 24.2265 110.299 26.7862C119.378 30.6247 127.141 37.0677 132.607 45.1663C135.341 49.2145 137.501 53.6701 138.979 58.4229C140.457 63.1778 141.255 68.2279 141.255 73.5021H124.158L139.038 88.3858L141.186 90.5341L147.936 97.2867L152.655 102.007L154.595 100.066L155.554 99.1072L161.352 93.3076L181.152 73.5021H164.056V73.5Z" fill="#313066"/>
<path d="M136.752 39.6919C129.682 37.36 121.081 36 111.796 36C102.675 36 94.2163 37.3154 87.2192 39.5716C80.2221 37.3154 71.7634 36 62.6427 36C53.3577 36 44.7568 37.36 37.6864 39.6919C37.2754 39.8279 37 40.2114 37 40.6461V102.384C37 102.705 37.1533 103.008 37.4132 103.197C37.6731 103.387 38.0063 103.438 38.3106 103.338C39.75 102.863 41.2627 102.431 42.8354 102.04V107.748C42.8354 108.069 42.9886 108.372 43.2485 108.559C43.5084 108.749 43.8416 108.8 44.1459 108.7C50.1434 106.729 57.5226 105.558 65.4971 105.558C73.496 105.558 80.8974 106.736 86.906 108.718C86.9127 108.72 86.9193 108.72 86.9238 108.722C86.946 108.729 86.9682 108.733 86.9904 108.74C87.0082 108.744 87.0237 108.749 87.0415 108.751C87.0615 108.755 87.0837 108.758 87.1037 108.76C87.1215 108.762 87.1415 108.764 87.1592 108.764C87.1792 108.767 87.1992 108.767 87.2192 108.767C87.2392 108.767 87.2592 108.767 87.2792 108.764C87.2969 108.764 87.3147 108.762 87.3347 108.76C87.3569 108.758 87.3769 108.755 87.3969 108.751C87.4147 108.749 87.4302 108.744 87.448 108.74C87.4702 108.735 87.4924 108.729 87.5146 108.722C87.5213 108.72 87.528 108.72 87.5324 108.718C93.541 106.733 100.945 105.556 108.941 105.558C116.916 105.558 124.295 106.729 130.292 108.7C130.597 108.8 130.93 108.747 131.19 108.559C131.45 108.37 131.603 108.069 131.603 107.748V102.04C133.176 102.431 134.688 102.863 136.128 103.338C136.432 103.438 136.765 103.387 137.025 103.197C137.285 103.008 137.438 102.707 137.438 102.384V40.6439C137.441 40.2114 137.163 39.8279 136.752 39.6919ZM135.441 41.3796V101.013C134.04 100.585 132.58 100.194 131.074 99.8444C130.997 99.802 130.914 99.7686 130.826 99.7485C125.092 98.4421 118.66 97.713 111.865 97.713C103.146 97.713 95.0315 98.9125 88.2188 100.99V41.3596C94.9116 39.2505 103.037 38.0065 111.796 38.0065C120.585 38.0043 128.733 39.2594 135.441 41.3796ZM86.2196 41.3596V100.99C79.4069 98.9125 71.2925 97.713 62.5739 97.713C55.7789 97.713 49.346 98.4421 43.6128 99.7485C43.524 99.7686 43.4418 99.8043 43.364 99.8466C41.858 100.197 40.4008 100.587 38.9992 101.015V41.3796C45.7053 39.2572 53.8552 38.0043 62.6427 38.0043C71.4013 38.0043 79.5268 39.2505 86.2196 41.3596ZM44.8345 106.381V101.572C50.2301 100.402 56.2698 99.7418 62.6427 99.7418C71.4013 99.7418 79.5246 100.986 86.2196 103.095V106.399C80.2332 104.593 73.1273 103.552 65.4971 103.552C57.8913 103.552 50.8076 104.586 44.8345 106.381ZM129.604 106.381C123.633 104.586 116.547 103.552 108.941 103.552C101.311 103.552 94.2052 104.593 88.2188 106.399V103.095C94.9116 100.986 103.037 99.7418 111.796 99.7418C118.169 99.7418 124.206 100.402 129.604 101.572V106.381Z" fill="white"/>
<path d="M145.638 49.9035V111.841C138.691 109.54 130.188 108.186 121.007 108.186C111.856 108.186 103.379 109.531 96.4434 111.819V49.8811C103.379 47.593 111.856 46.2487 121.007 46.2487C130.188 46.2487 138.689 47.6019 145.638 49.9035Z" fill="#F07F3C"/>
<path d="M86.1736 53.4664C81.3174 51.4964 75.4256 50.3483 69.0682 50.3483C62.6888 50.3483 56.7788 51.5032 51.9153 53.4845C51.4843 53.6612 51.2487 54.2363 51.3912 54.7707C51.5318 55.3051 51.9975 55.5972 52.4285 55.4206C57.0966 53.5162 62.8496 52.3863 69.0682 52.3863C75.2667 52.3863 81.0014 53.5094 85.6622 55.4025C86.0932 55.5769 86.5571 55.287 86.6995 54.7504C86.8402 54.2159 86.6046 53.6408 86.1736 53.4664Z" fill="white"/>
<path d="M88.267 83.188C93.1214 81.218 99.0131 80.0699 105.372 80.0699C111.752 80.0699 117.662 81.2247 122.525 83.2061C122.956 83.3827 123.192 83.9579 123.049 84.4923C122.907 85.0267 122.443 85.3188 122.012 85.1422C117.342 83.2378 111.589 82.1079 105.372 82.1079C99.1739 82.1079 93.4392 83.231 88.7784 85.1241C88.3474 85.2985 87.8835 85.0086 87.7411 84.4719C87.6004 83.9375 87.8342 83.3624 88.267 83.188Z" fill="white"/>
</svg>
