<svg width="147" height="148" viewBox="0 0 147 148" fill="none" xmlns="http://www.w3.org/2000/svg">
<path d="M141.219 44.8872C135.631 31.6815 126.327 20.4836 114.602 12.5602C108.739 8.5995 102.265 5.45742 95.3521 3.30703C88.4407 1.15461 81.0874 1.5092e-06 73.5 1.5092e-06C63.3834 -0.00203484 53.6863 2.05671 44.8872 5.7812C31.6815 11.3689 20.4816 20.673 12.5602 32.3983C8.59951 38.261 5.45742 44.7345 3.30703 51.6479C1.15461 58.5593 1.5092e-06 65.9146 1.5092e-06 73.5C-0.00203484 83.6166 2.05671 93.3137 5.7812 102.113C11.3689 115.318 20.673 126.518 32.3983 134.442C38.261 138.403 44.7345 141.545 51.6479 143.695C58.5593 145.845 65.9146 147.002 73.5 147.002C83.6166 147.004 93.3137 144.945 102.113 141.221C115.318 135.633 126.516 126.329 134.44 114.604C138.4 108.741 141.543 102.268 143.693 95.3541C145.843 88.4407 147 81.0874 147 73.502C147.002 63.3834 144.943 53.6863 141.219 44.8872ZM120.214 93.2281C116.375 102.31 109.932 110.075 101.836 115.542C97.7875 118.277 93.332 120.438 88.5792 121.916C83.8243 123.395 78.7741 124.193 73.5 124.193C66.4685 124.191 59.83 122.774 53.7718 120.214C44.6897 116.375 36.9251 109.932 31.4575 101.836C28.7227 97.7875 26.5621 93.332 25.0838 88.5792C23.6054 83.8243 22.8071 78.7741 22.8071 73.5C22.8092 66.4685 24.2264 59.83 26.7861 53.7718C30.6247 44.6897 37.0677 36.9251 45.1642 31.4575C49.2125 28.7227 53.668 26.5621 58.4208 25.0838C63.1757 23.6054 68.2259 22.8071 73.5 22.8071C80.5315 22.8092 87.17 24.2264 93.2281 26.7861C102.31 30.6247 110.075 37.0677 115.542 45.1642C118.277 49.2125 120.438 53.668 121.916 58.4208C123.395 63.1757 124.193 68.2258 124.193 73.5C124.191 80.5315 122.776 87.17 120.214 93.2281Z" fill="#313066"/>
<path d="M91.6501 46.5998C89.0639 44.8526 86.2029 43.4638 83.1443 42.5128C80.0877 41.5618 76.8356 41.0507 73.4981 41.0527C69.0486 41.0507 64.7519 41.9609 60.8646 43.6084C55.0263 46.0805 50.0943 50.1797 46.5979 55.352C44.8507 57.9402 43.4599 60.7992 42.5089 63.8578C41.5579 66.9144 41.0468 70.1664 41.0488 73.504C41.0468 77.9534 41.957 82.2501 43.6045 86.1375C46.0766 91.9757 50.1758 96.9078 55.3481 100.404C57.9363 102.151 60.7953 103.54 63.8539 104.491C66.9105 105.442 70.1625 105.953 73.5001 105.951C77.9495 105.953 82.2462 105.043 86.1336 103.396C91.9718 100.923 96.9039 96.8243 100.4 91.6519C102.147 89.0637 103.538 86.2047 104.487 83.1461C105.438 80.0896 105.949 76.8375 105.947 73.4999C105.949 69.0505 105.039 64.7538 103.392 60.8664C100.924 55.0282 96.8245 50.0962 91.6501 46.5998ZM82.3888 77.2488C82.0263 78.1082 81.5376 78.9085 80.945 79.6273C80.0551 80.7066 78.931 81.5903 77.6746 82.1951C77.0454 82.4986 76.3815 82.7327 75.6892 82.8936C74.9948 83.0545 74.2678 83.14 73.5001 83.14C72.1378 83.138 70.8976 82.8712 69.7512 82.3866C68.0366 81.6636 66.5399 80.4255 65.4993 78.88C64.978 78.1082 64.5707 77.2651 64.2917 76.3691C64.0128 75.4711 63.86 74.5201 63.86 73.4979C63.8621 72.1356 64.1288 70.8954 64.6135 69.749C64.9759 68.8896 65.4647 68.0893 66.0572 67.3705C66.9471 66.2912 68.0712 65.4075 69.3276 64.8027C69.9569 64.4993 70.6207 64.2651 71.3131 64.1042C72.0075 63.9433 72.7324 63.8578 73.5001 63.8578C74.8624 63.8598 76.1026 64.1266 77.249 64.6113C78.1084 64.9737 78.9086 65.4625 79.6275 66.055C80.7067 66.9449 81.5905 68.069 82.1953 69.3254C82.4987 69.9546 82.7329 70.6165 82.8938 71.3109C83.0547 72.0052 83.1402 72.7302 83.1402 73.4979C83.1402 74.8622 82.8734 76.1024 82.3888 77.2488Z" fill="#313066"/>
<path d="M122.685 31.3106C121.875 30.5027 120.741 30 119.502 30H27.5027C26.2633 30 25.1299 30.5027 24.319 31.3106C23.5059 32.1162 23 33.2424 23 34.4739V96.1385C23 97.3701 23.5059 98.4962 24.319 99.3019C25.1299 100.11 26.2633 100.612 27.5027 100.612H47.005H59.4615L57.2389 115.872C57.1969 116.155 57.2831 116.445 57.4709 116.66C57.6587 116.875 57.9348 117 58.2221 117H88.7757C89.0629 117 89.3391 116.875 89.5269 116.66C89.7147 116.445 89.8008 116.155 89.7589 115.872L87.5362 100.612H99.995H119.497C120.737 100.612 121.87 100.11 122.681 99.3019C123.494 98.4962 124 97.3701 124 96.1385V34.4739C124.004 33.2424 123.498 32.1162 122.685 31.3106ZM87.6312 115.026H59.3732L61.4721 100.615H85.5323L87.6312 115.026ZM86.394 98.6389H60.6126H48.4256C51.7883 90.0731 59.4726 83.6497 68.8095 82.0187C69.2469 81.9418 69.5805 81.5862 69.6269 81.1472C69.6733 80.7081 69.4192 80.2932 69.0083 80.1286C66.779 79.2417 64.8745 77.7138 63.529 75.7754C62.1835 73.837 61.397 71.4924 61.397 68.9569C61.397 65.6311 62.7513 62.6302 64.943 60.4503C67.1369 58.2726 70.1572 56.927 73.5044 56.927C76.8516 56.927 79.8719 58.2726 82.0658 60.4503C84.2575 62.6302 85.6119 65.6311 85.6119 68.9569C85.6119 71.4924 84.8253 73.837 83.4798 75.7754C82.1343 77.7138 80.2298 79.2417 78.0005 80.1286C77.5874 80.2932 77.3355 80.7081 77.3819 81.1472C77.4283 81.5862 77.7597 81.9418 78.1994 82.0187C87.5384 83.6497 95.2205 90.0731 98.5832 98.6389H86.394ZM122.016 96.1407C122.016 96.8344 121.735 97.4535 121.28 97.9079C120.823 98.3623 120.2 98.6389 119.502 98.6389H100.704C97.5492 89.9216 90.2803 83.1668 81.2174 80.6774C82.7507 79.6807 84.0763 78.3965 85.1147 76.8993C86.6812 74.6448 87.6003 71.9051 87.6003 68.9591C87.6003 65.0933 86.0206 61.5853 83.471 59.0541C80.9235 56.5208 77.3929 54.9512 73.5022 54.9512C69.6115 54.9512 66.0809 56.5208 63.5334 59.0541C60.9838 61.5853 59.4041 65.0933 59.4041 68.9591C59.4041 71.9051 60.3232 74.6448 61.8874 76.8993C62.9259 78.3965 64.2515 79.6807 65.7848 80.6774C56.7219 83.1668 49.453 89.9216 46.298 98.6389H27.5027C26.8046 98.6389 26.1815 98.3601 25.7242 97.9079C25.2668 97.4535 24.9884 96.8344 24.9884 96.1407V34.4739C24.9884 33.7802 25.269 33.1612 25.7242 32.7067C26.1837 32.2545 26.8068 31.9757 27.5027 31.9757H119.499C120.198 31.9757 120.821 32.2545 121.278 32.7067C121.735 33.1612 122.014 33.7802 122.014 34.4739V96.1407H122.016Z" fill="white"/>
<path d="M90.776 85.7119C95.5107 83.8213 98.858 79.2103 98.858 73.8151C98.858 66.7388 93.1021 61 86 61C78.9 61 73.142 66.7366 73.142 73.8151C73.142 79.2103 76.4893 83.8234 81.2241 85.7119C71.2429 87.462 63.124 94.5945 60 104H112C108.876 94.5945 100.757 87.462 90.776 85.7119Z" fill="#F07F3C"/>
</svg>
